<?xml version="1.0" encoding="utf-8"?>
<!-- Generator: Adobe Illustrator 23.0.6, SVG Export Plug-In . SVG Version: 6.00 Build 0)  -->
<svg version="1.1" id="Layer_1" xmlns="http://www.w3.org/2000/svg" xmlns:xlink="http://www.w3.org/1999/xlink" x="0px" y="0px"
	 viewBox="0 0 540 496" style="enable-background:new 0 0 540 496;" xml:space="preserve">
<style type="text/css">
	.st0{clip-path:url(#SVGID_2_);}
	.st1{clip-path:url(#SVGID_2_);fill:#0087FF;}
	.st2{clip-path:url(#SVGID_2_);fill:#FF003C;}
</style>
<g>
	<defs>
		<rect id="SVGID_1_" x="32.29" y="26.02" width="466.25" height="430.69"/>
	</defs>
	<clipPath id="SVGID_2_">
		<use xlink:href="#SVGID_1_"  style="overflow:visible;"/>
	</clipPath>
	<path class="st0" d="M334.13,381.96l-16.42,1.44c-2.07,0.18-3.3-1-3.18-3.26l0.41-4.53l0.84-8.75l0.51-5.19
		c0.15-1.94,1.18-2.99,3.1-3.16l16.26-1.42c2.07-0.18,3.3,1,3.18,3.26l-0.41,4.53l-1.19,13.92
		C337.08,380.74,336.04,381.79,334.13,381.96 M341.16,333.8l-22.64,1.98c-16.42,1.44-23.14,9.09-24.64,24.96l-0.74,8.1l-0.84,8.75
		l-0.74,8.1c-1.28,12.96,7.4,22.16,20.63,21l11.32-0.99c2.87-0.25,5.39-0.79,7.74-1.48c2.35-0.69,3.71,0.16,3.45,2.75l-0.81,9.07
		l-0.51,5.18c-0.15,1.94-1.18,2.99-3.1,3.16l-16.26,1.42c-2.07,0.18-3.3-1-3.18-3.26l0.41-4.53l0.14-2.1
		c0.05-1.29-1.28-1.82-3.36-1.63l-16.1,1.41c-1.91,0.17-3.12,1.08-3.26,3.18l-0.06,1.13l-0.74,8.1c-1.28,12.96,7.4,22.16,20.63,21
		l22.64-1.98c16.42-1.44,23.14-9.09,24.64-24.96l0.74-8.1l4.52-51.15l0.74-8.1C363.07,341.84,354.39,332.64,341.16,333.8
		 M244.37,431.9l-16.26,1.42c-2.07,0.18-3.3-1-3.18-3.26l0.41-4.53l1.11-11.18c0.15-1.94,1.18-2.99,3.1-3.16l16.1-1.41
		c2.07-0.18,3.31,1.15,3.18,3.26l-0.85,10.51l-0.51,5.18C247.32,430.68,246.29,431.73,244.37,431.9 M248.29,386.74l-16.26,1.42
		c-2.07,0.18-3.31-1.16-3.18-3.26l1.01-10.53l0.51-5.18c0.15-1.94,1.18-3,3.1-3.16l16.26-1.42c2.07-0.18,3.3,1,3.18,3.26l-0.41,4.53
		l-1.11,11.18C251.24,385.52,250.21,386.57,248.29,386.74 M255.24,341.32l-22.64,1.98c-16.42,1.44-23.14,9.09-24.64,24.97l-0.74,8.1
		l-0.86,10.36c-0.29,4.04,0.91,8.59,4.25,11.84c1.57,1.47,1.67,2.58,0.02,3.85c-4.23,3.1-6.26,7.45-6.9,12.97l-1.03,12.14l-0.74,8.1
		c-1.28,12.96,7.4,22.16,20.63,21l22.63-1.98c16.42-1.44,23.14-9.09,24.64-24.96l0.74-8.1l0.86-10.36
		c0.29-4.04-0.93-8.75-4.42-11.98c-1.41-1.48-1.5-2.44,0.32-3.72c4.07-3.09,6.1-7.44,6.58-12.94l1.19-12.15l0.74-8.1
		C277.15,349.36,268.47,340.16,255.24,341.32 M194.21,348.76l-14.67,1.28c-1.75,0.15-2.94,1.22-3.44,2.87l-8.39,30.77
		c-0.6,2.3,0.8,3.62,3.03,3.43l15.94-1.4c1.75-0.15,2.81-0.89,3.28-2.86l7.28-30.67C197.69,349.9,196.45,348.57,194.21,348.76"/>
	<path class="st1" d="M477.79,187.99l-22.64,1.98c-16.42,1.44-23.14,9.09-24.64,24.97l-0.1,0.65l-1.23,13.44l-0.74,8.1
		c-1.28,12.96,7.4,22.16,20.79,20.99l18.97-1.66c2.23-0.2,3.68-0.16,3.56,0.33l-1.23,13.44l-0.51,5.18
		c-0.15,1.94-1.18,2.99-3.1,3.16L450.66,280c-2.07,0.18-3.3-1-3.18-3.26l0.41-4.53l0.3-2.11c0.06-1.13-1.12-1.83-3.36-1.63
		l-16.26,1.42c-1.91,0.17-3.11,1.23-3.26,3.18l-0.06,1.13l-0.74,8.1c-1.28,12.96,7.4,22.16,20.63,21l22.64-1.98
		c16.42-1.44,23.14-9.09,24.64-24.96l0.1-0.65l1.23-13.44l0.74-8.1c1.27-12.96-7.4-22.16-20.79-20.99l-18.97,1.66
		c-2.23,0.19-3.68,0.16-3.56-0.33l1.23-13.44l0.51-5.18c0.15-1.94,1.18-3,3.1-3.16l16.26-1.42c2.07-0.18,3.3,1,3.18,3.26l-0.41,4.53
		l-0.15,1.94c-0.06,1.13,0.98,2,3.21,1.81l16.26-1.42c1.91-0.17,3.1-1.24,3.26-3.18l0.06-1.13l0.74-8.1
		C499.69,196.04,491.02,186.84,477.79,187.99 M413.71,193.6l-19.45,1.7c-1.59,0.14-2.81,0.89-3.64,2.41l-18.18,34.52
		c-1.53,2.7-3.85,1.94-3.63-1.13l2.65-30.27c0.12-2.26-1.1-3.44-3.18-3.26L352.02,199c-1.91,0.17-2.95,1.22-3.1,3.16L339.47,309
		c-0.14,2.1,1.1,3.44,3.18,3.26l16.26-1.42c1.91-0.17,2.94-1.22,3.1-3.16l3.43-37.89c0.21-3.07,2.75-3.45,3.81-0.5l14.13,36.67
		c0.65,1.87,2.15,2.54,3.9,2.39l17.38-1.52c2.23-0.2,3.22-1.73,2.4-3.74l-18.73-48.8c-0.62-1.55-0.41-2.86,0.28-4.2l27.66-52.86
		C417.53,195.03,416.26,193.38,413.71,193.6 M302.16,315.8l16.26-1.42c1.91-0.17,2.95-1.22,3.1-3.16l9.45-106.84
		c0.14-2.1-1.1-3.44-3.18-3.26l-16.26,1.42c-1.91,0.17-2.95,1.22-3.1,3.16l-9.45,106.84C298.85,314.64,300.09,315.98,302.16,315.8
		 M287.3,204.66l-18.49,1.62c-1.75,0.15-2.96,1.06-3.63,2.57l-15.85,33.67c-1.23,2.52-3.33,2.38-4.2-0.27l-9.71-30.15
		c-0.63-1.71-1.85-2.73-3.76-2.56l-17.54,1.53c-1.91,0.17-2.95,1.22-3.1,3.16l-9.45,106.84c-0.14,2.1,1.1,3.44,3.18,3.26l16.1-1.41
		c1.91-0.17,2.95-1.22,3.1-3.16l4.93-55.69c0.21-3.07,2.58-3.6,3.81-0.49l9.17,22.17c1.03,2.64,2.96,2.63,4.2,0.27l13.72-24.97
		c1.53-2.7,3.82-2.26,3.62,0.97l-4.75,54.07c-0.14,2.1,1.1,3.44,3.18,3.26l16.1-1.41c1.91-0.17,2.95-1.22,3.1-3.16l9.45-106.84
		C290.61,205.81,289.37,204.48,287.3,204.66 M163.35,297.1l-0.51,5.18c-0.15,1.94-1.18,2.99-3.1,3.16l-16.26,1.42
		c-2.07,0.18-3.3-1-3.18-3.26l0.41-4.53l4.52-51.15l0.51-5.18c0.15-1.94,1.18-2.99,3.1-3.16l16.26-1.42c2.07-0.18,3.3,1,3.18,3.26
		l-0.41,4.53L163.35,297.1z M170.62,214.87l-22.64,1.98c-16.42,1.44-23.14,9.09-24.64,24.96l-0.74,8.1l-4.52,51.15l-0.74,8.1
		c-1.28,12.96,7.4,22.16,20.63,21l22.64-1.98c16.42-1.44,23.14-9.09,24.64-24.96l0.74-8.1l4.52-51.15l0.74-8.1
		C192.52,222.91,183.85,213.71,170.62,214.87 M106.54,220.47l-19.45,1.7c-1.59,0.14-2.81,0.89-3.64,2.41L65.26,259.1
		c-1.53,2.7-3.84,1.94-3.63-1.13l2.65-30.27c0.12-2.26-1.1-3.44-3.18-3.26l-16.26,1.42c-1.91,0.17-2.95,1.22-3.1,3.16L32.3,335.87
		c-0.14,2.1,1.1,3.44,3.18,3.26l16.26-1.42c1.91-0.17,2.94-1.22,3.1-3.16l3.43-37.89c0.21-3.07,2.75-3.45,3.81-0.49l14.13,36.67
		c0.64,1.87,2.15,2.54,3.9,2.39l17.37-1.52c2.23-0.2,3.22-1.73,2.4-3.74l-18.73-48.8c-0.62-1.55-0.41-2.86,0.28-4.2l27.66-52.86
		C110.36,221.91,109.09,220.25,106.54,220.47"/>
	<path class="st2" d="M478.36,54.09l-16.58,1.45c-1.75,0.15-3.12,1.08-3.62,2.73l-11.85,35.25c-1.01,3.14-3.28,2.86-3.88-0.3
		l-5.41-32.45c-0.33-1.9-1.7-2.9-3.61-2.74l-15.62,1.37c-2.07,0.18-3.09,1.39-2.74,3.61l10.1,60.32c0.33,1.9,1.7,2.9,3.61,2.74
		l1.27-0.11c0.64-0.06,0.91,1.21,0.79,3.47l-3.42,38.05c-0.12,2.26,1.1,3.44,3.18,3.26l16.26-1.42c1.91-0.17,2.95-1.22,3.1-3.16
		l3.62-39.35c0.15-1.94,1.18-2.99,2.94-3.15c1.75-0.15,2.96-1.06,3.46-2.71l21.12-63.37C481.83,55.23,480.75,53.88,478.36,54.09
		 M468.52,26.04l-16.9,1.48c-1.59,0.14-2.83,0.73-3.64,2.41l-9.08,17.34c-1.25,2.2,0.02,3.85,2.57,3.63l16.9-1.48
		c1.59-0.14,2.83-0.73,3.64-2.41l9.08-17.34C472.34,27.47,471.07,25.81,468.52,26.04 M377.39,65.81l-4.47,49.86
		c-0.2,3.23-2.75,3.45-3.67,0.32l-13.54-48.29c-0.49-1.88-1.68-2.74-3.6-2.58l-16.9,1.48c-1.91,0.17-2.95,1.22-3.1,3.16
		l-9.45,106.84c-0.14,2.1,1.1,3.44,3.18,3.26l16.26-1.42c1.91-0.17,2.95-1.22,3.1-3.16l4.47-49.86c0.2-3.23,2.75-3.45,3.67-0.32
		l13.54,48.29c0.49,1.89,1.68,2.74,3.6,2.58l16.9-1.48c1.91-0.17,2.95-1.22,3.1-3.16l9.45-106.84c0.14-2.1-1.1-3.44-3.18-3.26
		l-16.26,1.42C378.57,62.82,377.54,63.87,377.39,65.81 M312.58,68.59l-61.53,5.38c-1.91,0.17-2.94,1.22-3.1,3.16l-1.45,16.51
		c-0.14,2.1,1.1,3.44,3.18,3.26l31.88-2.79c2.71-0.24,3.66,1.45,2.25,3.66l-42.34,65.06c-0.86,1.2-1.09,2.18-1.27,3.8l-1.54,17.32
		c-0.14,2.1,1.1,3.44,3.18,3.26l61.53-5.38c1.91-0.17,2.94-1.22,3.1-3.16l1.45-16.51c0.14-2.1-1.1-3.44-3.18-3.26l-31.88,2.79
		c-2.71,0.24-3.66-1.45-2.25-3.66l42.33-65.06c0.86-1.2,1.09-2.18,1.27-3.81l1.54-17.32C315.89,69.75,314.65,68.41,312.58,68.59
		 M268.19,66.05l29.65-2.59c1.75-0.15,2.8-1.05,3.46-2.71l6.72-16.81c0.92-2.33-0.18-3.84-2.57-3.63l-14.03,1.23
		c-1.75,0.15-2.81,0.89-3.47,2.55l-2.77,6.83c-1.18,2.99-3.3,2.7-4.06-0.45l-1.07-4.89c-0.5-2.04-1.86-2.89-3.77-2.72l-12.75,1.12
		c-2.07,0.18-3.24,1.57-2.73,3.61l3.64,15.9C264.93,65.53,266.27,66.22,268.19,66.05 M230.3,95.71l1.45-16.51
		c0.14-2.1-1.1-3.44-3.18-3.26l-61.53,5.38c-1.91,0.17-2.94,1.22-3.1,3.16l-9.45,106.84c-0.14,2.1,1.1,3.44,3.18,3.26l61.53-5.38
		c1.91-0.17,2.95-1.22,3.1-3.16l1.45-16.51c0.14-2.1-1.1-3.44-3.18-3.26l-38.26,3.35c-2.07,0.18-3.31-1.16-3.18-3.26l1.36-15.7
		c0.15-1.94,1.18-3,3.1-3.16l39.69-3.47c1.91-0.17,2.96-1.06,3.1-3.16l1.29-16.5c0.14-2.1-1.1-3.44-3.18-3.26l-38.1,3.33
		c-2.07,0.18-3.31-1.16-3.18-3.26l1.36-15.7c0.15-1.94,1.18-2.99,3.1-3.16l39.53-3.46C229.12,98.7,230.15,97.65,230.3,95.71
		 M123.46,88.03l-4.47,49.86c-0.2,3.23-2.75,3.45-3.67,0.32l-13.54-48.29c-0.49-1.88-1.69-2.74-3.6-2.58l-16.9,1.48
		c-1.91,0.17-2.94,1.22-3.1,3.16l-9.45,106.84c-0.14,2.1,1.1,3.44,3.18,3.26l16.26-1.42c1.91-0.17,2.94-1.22,3.1-3.16l4.47-49.86
		c0.2-3.23,2.75-3.45,3.67-0.32l13.54,48.29c0.49,1.89,1.69,2.74,3.6,2.58l16.9-1.48c1.91-0.17,2.94-1.22,3.1-3.16l9.45-106.84
		c0.14-2.1-1.1-3.44-3.18-3.26l-16.26,1.42C124.64,85.03,123.61,86.09,123.46,88.03"/>
</g>
</svg>
